/* XPM */
static char *a2de5e3482154229fc02d1748502d097aa7Z5cahMRSMF80E[] = {
/* columns rows colors chars-per-pixel */
"64 64 11 1 ",
"  c black",
". c #040404",
"X c gray3",
"o c #090909",
"O c #464646",
"+ c gray28",
"@ c #484848",
"# c #515151",
"$ c gray33",
"% c #555555",
"& c #898989",
/* pixels */
"&O%#%##%###%##%@                               .@%###%###%###%O&",
"O                                                              O",
"% o.............                                .............o %",
"# .                                                          . #",
"# .                                                          . #",
"# .                                                          . #",
"# .                                                          . %",
"% .                                                          . #",
"% .                                                          . #",
"# .                                                          . #",
"# .                                                          . %",
"% .                                                          . #",
"# .                                                          . #",
"# .                                                          . #",
"% .                                                          . %",
"@ .                                                          . @",
"o                                                               ",
".                                                               ",
".                                                               ",
".                                                               ",
".                                                               ",
".                                                               ",
".                                                               ",
".                                                               ",
".                                                               ",
".                                                               ",
".                                                               ",
".                                                               ",
".                                                               ",
".                                                               ",
".                                                               ",
".                                                               ",
".                                                               ",
".                                                               ",
".                                                               ",
".                                                               ",
".                                                               ",
".                                                               ",
".                                                               ",
".                                                               ",
".                                                               ",
".                                                               ",
".                                                               ",
".                                                               ",
".                                                               ",
".                                                               ",
".                                                               ",
".                                                              .",
"@ .                                                          . @",
"% .                                                          . %",
"# o                                                          . #",
"% .                                                          . #",
"# o                                                          . #",
"# .                                                          . #",
"% .                                                          . %",
"# .                                                          . #",
"% o                                                          . #",
"# .                                                          . #",
"# .                                                          . %",
"% .                                                          . #",
"# .                                                          . #",
"% o...o .o......                                .o...........o %",
"O                                                              O",
"&O%###%##%##%#%@.                               @%#%%##%#%%##%@&"
};
