/* XPM */
static char *a2ff848c88194d9ade66555c129999b4vcykR7uVLdKAykxf[] = {
/* columns rows colors chars-per-pixel */
"64 64 229 2 ",
"   c #000000",
".  c #090508",
"X  c #190406",
"o  c #161601",
"O  c #191900",
"+  c #1B1A06",
"@  c #0E0112",
"#  c #0E0E12",
"$  c #1E0511",
"%  c #101013",
"&  c #23080B",
"*  c #251609",
"=  c #251C0B",
"-  c #270715",
";  c #251413",
":  c #251C14",
">  c #251419",
",  c #26250D",
"<  c #28270E",
"1  c #242116",
"2  c #201531",
"3  c #7E1006",
"4  c #7E2B0E",
"5  c #7E1A34",
"6  c #7E3A29",
"7  c #0E0147",
"8  c #7E0D44",
"9  c #7E2D45",
"0  c #7E1674",
"q  c #7E2F71",
"w  c #4B4B4B",
"e  c #7E7D48",
"r  c #814131",
"t  c #FF005C",
"y  c #EF2F57",
"u  c #FF345C",
"i  c #FF0168",
"p  c #FF0476",
"a  c #F93071",
"s  c #FF3974",
"d  c #817D4C",
"f  c #B9734C",
"g  c #BA6757",
"h  c #B9726F",
"j  c #E06B58",
"k  c #FF7D5C",
"l  c #EF4D73",
"z  c #FF4676",
"x  c #FF4A76",
"c  c #FF5572",
"v  c #F56A67",
"b  c #FF7165",
"n  c #FE7867",
"m  c #FF7E6E",
"M  c #FF6077",
"N  c #FF6E76",
"B  c #FF6179",
"V  c #FF7775",
"C  c #FF737C",
"Z  c #FF7B78",
"A  c #B99239",
"S  c #818144",
"D  c #B98F4C",
"F  c #BAAC51",
"G  c #B9916C",
"H  c #B9AA6C",
"J  c #FF855E",
"K  c #C0BD5C",
"L  c #FFAD5A",
"P  c #FEB95B",
"I  c #FFBE5A",
"U  c #FF8A63",
"Y  c #FF896C",
"T  c #FF9566",
"R  c #FF9569",
"E  c #FF8974",
"W  c #FF9473",
"Q  c #FF9A78",
"!  c #FFA563",
"~  c #FFBD65",
"^  c #FFA077",
"/  c #FFA17C",
"(  c #FFAE7A",
")  c #FFBB79",
"_  c #FEC55D",
"`  c #FFC962",
"'  c #FFC66A",
"]  c #FFD766",
"[  c #FFD66D",
"{  c #FFCA73",
"}  c #FFC17E",
"|  c #FECB78",
" . c #FED575",
".. c #FFD479",
"X. c #FFD87C",
"o. c #FFE267",
"O. c #FFEE6E",
"+. c #FFE370",
"@. c #FFEC75",
"#. c #FFEA7B",
"$. c #FEF977",
"%. c #FEF57B",
"&. c #FBF87B",
"*. c #FF0C8C",
"=. c #FF0098",
"-. c #F22C8F",
";. c #FE3E83",
":. c #FE3896",
">. c #FF00A6",
",. c #FF2CA6",
"<. c #FE38A6",
"1. c #FE24B8",
"2. c #FF38B3",
"3. c #B97290",
"4. c #FF4589",
"5. c #FF4B8F",
"6. c #FF5487",
"7. c #FE4696",
"8. c #F05993",
"9. c #FF778B",
"0. c #FF7A8E",
"q. c #FF6697",
"w. c #FF6C90",
"e. c #FF6B9A",
"r. c #FC7290",
"t. c #EF4AAF",
"y. c #FF51A5",
"u. c #FF5DA7",
"i. c #FF52A9",
"p. c #FF44B7",
"a. c #FF43BB",
"s. c #FF4DBE",
"d. c #FF54B9",
"f. c #FF5ABC",
"g. c #D077A1",
"h. c #FB62AB",
"j. c #FF77AA",
"k. c #FF79A8",
"l. c #FF63B3",
"z. c #FF61BF",
"x. c #FF68BD",
"c. c #F000CA",
"v. c #FF4EC3",
"b. c #FF5AC8",
"n. c #FF64C6",
"m. c #FF66CB",
"M. c #FF69C9",
"N. c #B98D88",
"B. c #B9AA91",
"V. c #A9A9A1",
"C. c #BBBBBA",
"Z. c #FF858B",
"A. c #FF9080",
"S. c #FF9F8C",
"D. c #FF8691",
"F. c #FF839B",
"G. c #FF8C9E",
"H. c #FF9791",
"J. c #FF9B97",
"K. c #FFA383",
"L. c #FFA38C",
"P. c #FFAD8E",
"I. c #FFBA87",
"U. c #FEB48B",
"Y. c #FFAA94",
"T. c #FFA49D",
"R. c #FFBA90",
"E. c #FFB399",
"W. c #FF83A6",
"Q. c #FE89AA",
"!. c #FF93A4",
"~. c #FF92A8",
"^. c #FF99AA",
"/. c #FF82B2",
"(. c #FF8DB1",
"). c #FF8ABC",
"_. c #FF90B6",
"`. c #FE95BA",
"'. c #FF9CBC",
"]. c #FFA6A0",
"[. c #FFAAA6",
"{. c #FFB5AC",
"}. c #FFBCAF",
"|. c #FFA3B6",
" X c #FFB5BC",
".X c #FFB9BE",
"XX c #BCC6BA",
"oX c #FFC587",
"OX c #FFCC8A",
"+X c #FFDC85",
"@X c #FFD28E",
"#X c #FFC195",
"$X c #FFC99D",
"%X c #FFD390",
"&X c #FFDE92",
"*X c #FFFA84",
"=X c #FEE997",
"-X c #FFFB97",
";X c #FFF69D",
":X c #FFC5A5",
">X c #FFC4AC",
",X c #FFCAA9",
"<X c #FFDEA7",
"1X c #FFCFB3",
"2X c #FFCDBA",
"3X c #FFD1B3",
"4X c #FFDAB2",
"5X c #FFDBBB",
"6X c #FFE3A5",
"7X c #FFE5AB",
"8X c #FFEAAA",
"9X c #FFF2A0",
"0X c #FFF7AB",
"qX c #FFE5BC",
"wX c #FFEABB",
"eX c #FFF2B7",
"rX c #FFFFB2",
"tX c #FEF6BE",
"yX c #FF81C2",
"uX c #FF9BC3",
"iX c #FFA6C9",
"pX c #FFA9C9",
"aX c #FFB1C7",
"sX c #FFB5C9",
"dX c #FFB2D0",
"fX c #FFB9D4",
"gX c #FFEEC0",
"hX c #FDF3C4",
"jX c #FEFBC6",
/* pixels */
"                                                        # X   g.=.8   -                                                         ",
"                                                      % o   XX4X=.1.3   -                                                       ",
"                                                    # O   C.rX@Xc.1.a 3   &                                                     ",
"                                                  % o   C.rX$.2X>.;.u ,.0   -                                                   ",
"                                                # o   C.rX$.tX2Xp u -.,.a 5   -                                                 ",
"                                              % O   C.rX$.tXtX' t ,.,.u :.:.3   -                                               ",
"                                            # o   C.rX$.hXeX%.oX=.<.u :.2.s ;.0   -                                             ",
"                                          # O   C.rX$.hXeXO.8X2X=.u -.2.s ;.v.7.5   -                                           ",
"                                        # o   C.rX$.tXeXO.8XwX} i :.2.s ;.a.4.x p.4   -                                         ",
"                                      % O   C.rX$.tXeX@.8XqX#.~ =.<.s z a.4.z v.y.c q   -                                       ",
"                                    # o   C.rX$.hXeXO.8XwX+.=X X>.z 4.2.4.x s.y.c f.b.9   -                                     ",
"                                  # O   C.rX$.hXeXO.8XqX+.&X5XU.p 4.a.5.z s.y.c f.f.6.u.9   >                                   ",
"                                % o   C.rX$.hXeXO.8XwX+.&X5X+X~ *.p.4.x s.y.c f.f.M h.m.w.4   >                                 ",
"                              # O   C.rX$.tXeXO.8XqX+.&X5X....{.1.6.z s.y.c f.f.M l.n.e.N n q   -                               ",
"                            . .   C.rX$.tXeXO.8XwX[ &X5XX...4X[.-.x v.y.c f.f.M l.M.e.C v k.0.6   &                             ",
"                            +   C.rX$.hXeXO.8XqX+.=X5XX. .1X@XL s v.y.c d.f.M l.M.e.N b k.0.U r.r   X                           ",
"                          1   V.rX$.tXeXO.8XqX+.&X5XX...1XOX] Y.2.y.c f.f.B l.m.e.N v k.9.J k.Q.g   ;                           ",
"                          <   K *XhXeX@.8XwX+.&X5XX...1XOX` $X|.y.c f.f.B l.m.q.N b k.0.k W.W.Y g   *                           ",
"                          1   H jXeXO.8XqX+.=X5XX...1XOX` :X$X! z f.f.M l.M.q.N b k.0.k W.W.J !.3.  -                           ",
"                          1   B.rXO.8XqX+.&X5X.. .3XOX` :XR._ / s.f.B l.m.e.N b j.0.k W.W.U !.`.g   ;                           ",
"                          1   H %.8XqX+.&X5XX...1XOX` :XR.I I.|.s.B l.m.e.N b k.0.k W.W.U G.(.Q f   *                           ",
"                          1   F 0XqX+.&X5XX...1XOX` :X#X_ I.}.uXc l.m.e.N b k.0.k W.W.U !._.E J.3.  >                           ",
"                          1   B.gX[ &X5XX...3XOX` :XR.I I.{.dXS.u.M.e.C b k.0.k W.Q.U G.(.W H.iXh   >                           ",
"                          1   H #.=X5XX...1XOX` :X#X_ I.{.dXU.^.m.e.N b k.0.k W.W.J G.).W H.'.L.f   *                           ",
"                          ,   D =X5X....3XOX` :X#XI I.{.dXP.P.'.u.N b k.0.k k.W.U G._.W H.uXS.L.3.  >                           ",
"                          :   H qX....1XOX` :X#XI I.{.dXP.Y.pX^.N b k.0.k W.Q.U G.).W H.uXL.S.pX3.  >                           ",
"                          :   B.+X| 1XOX` :X#XI I.}.dXP.P.iX].T b j.0.k W.Q.J G._.W H.uXS.K.iX{.D   *                           ",
"                          =   A +X1XOX` :X#XI I.{.dXP.P.iXT.Q !.j.9.k k.W.J G._.W H.uXS.K.iX].U.h   ;                           ",
"                          :   H 4XOX_ :X#XI I.}.dXP.P.iXT.^ |._.0.k W.W.J G._.W H.uXS.K.pX[.( sXN.  >                           ",
"                          :   N.%X_ :X#XI I.{.dXP.P.iXT.^ '.^.T n W.W.U G.`.W S.uXL.K.iX[.( aXsXG . >                           ",
"                          =   D [ :X#XI I.{.dXP.P.iXT.^ '.^.W Z.W.F.U G.).W H.uXS.K.iX[.( aX XR.D   :                           ",
"                          =   D ,X#XI I.{.dXP.P.iXT.^ '.^.R !.).W.U G._.W H.uXS.K.iX[.( aX XU.) A   =                           ",
"                          ;   N.$XP I.{.dXP.P.iXT.Q '.^.T Q.(.E U G.).W S.uXS.K.iX[.( aX XR.~ oXN.  :                           ",
"                          =   D ` I.}.dXP.P.iXT.^ '.^.T ~.(.Y Y G._.W H.uXS.K.iX[.( pX.XR.~ ) 1XG   :                           ",
"                          =   D I.{.dXP.P.pXT.^ '.^.R ~.(.U Z.)._.W H.uXS.S.iX[.( aX XR.~ } >X..A   *                           ",
"                          ;   G }.dXP.P.iXT.^ '.^.T ~.(.U D./.Z.Q H.uXS./ iX[.( aX XR.~ } >X{ | G   :                           ",
"                          >   3.fXP.P.iXT.^ '.^.R ~.(.U D./.V U H.uXS.K.iX[.( aX XR.~ } >X{ { 4XG . :                           ",
"                          >   N.E.P.iXT.^ '.^.T ~.(.U D./.m V /.uXS.K.iX[.( aX XR.~ } >X{ { 1X&XD   =                           ",
"                          *   D E.iXT.Q '.^.T ~.(.Y D./.m Z k.F.L.K.iX[.( aX XR.~ } >X{ { 1X@X .H   :                           ",
"                          >   h pXT.^ '.^.T ~._.U D.j.Y V j.N J L.iX[.( aX XR.~ ) >X| { 1X@X] 5XB.  :                           ",
"                          >   3.[.Q '.^.T ~.(.U D./.m Z j.9.b F.pX[.( aX XR.~ } >X| { 1X%X] 4X6XF   =                           ",
"                          *   f ( '.^.T ~.(.U D./.m Z j.C b w.).[.( aX XR.~ } >X| { 1X@X] 4X<X@.H   ,                           ",
"                          ;   h |.!.T ~.(.U D./.m Z j.C b w.z.M.( aX XR.~ } >X{ { 1X@X] 4X<Xo.eXB.  1                           ",
"                          >   3.'.T ~.(.U D./.m Z j.C b w.x.b.E aX XR.~ ) >X| { 1X@X] 4X<Xo.6XwXH   1                           ",
"                          *   g Q !._.Y D./.m Z j.C b w.x.m.c /. XR.~ oX>X{ { 3X@X] 4X<Xo.7XqX*XF   ,                           ",
"                          *   g ^.(.U D./.m Z j.C b w.x.n.B i.yXR.~ ) >X{ { 1X@X] 4X<Xo.7XwX@.0XB.  1                           ",
"                          >   3._.U D./.Y V j.9.b w.x.n.B u.v.0.` } >X{ { 1X@X] 4X<Xo.7XwX@.9XjXH   1                           ",
"                          -   h E Z.j.m Z k.C v w.x.n.B u.b.4.Y } >X| { 1X@X] 4X6Xo.7XwX@.9XhX-XK   <                           ",
"                          *   g F.j.E Z j.9.b w.x.n.B u.b.6.5.).:X| { 1X%X] 4X<Xo.7XqX#.9XhX-X&.S   +                           ",
"                          . X 2 g.E C j.C b w.x.n.B u.b.6.5.2.W.{ { 1X%X] 4X<Xo.7XwX@.9XhX-X&.e   ,                             ",
"                            X   . j k.N b w.x.n.M u.b.6.6.v.:.J  .1X%X] 4X<Xo.7XwX@.9XhX-X*Xe   <                               ",
"                              & . . j V w.x.n.c u.b.6.6.v.5.a W.1X%X] 4X<Xo.7XwX@.9XhX-X&.e   <                                 ",
"                                &   # 8.x.b.B u.b.6.6.v.5.x 1.k.@X] 4X<Xo.7XwX@.9XhX-X*Xe   <                                   ",
"                                  $   7 t.w.u.n.6.6.v.5.z a.,.U o.4X<Xo.7XwX@.9XhX-X&.e   <                                     ",
"                                    $   . l n.l 6.v.5.z p.7.i D.4X<Xo.7XwX@.9XhX-X&.e   <                                       ",
"                                      @ . # -.8.v.5.z p.:.z =.).6Xo.7XwX#.9XhX-X&.e   <                                         ",
"                                        -   @ v.5.z a.7.y t.>.Y @.7XwX@.;XhX;X&.e   <                                           ",
"                                          $   X y p.<.u <.<.i E 8XwX@.8XhX-X&.e   <                                             ",
"                                            &   . -.l <.<.u *.).wX@.9XhX-X&.e   <                                               ",
"                                              X . . -.<.u :.>.A.%.;XhX-X&.e   <                                                 ",
"                                                X   7 y -.<.i T 9XhX-X&.e   <                                                   ",
".                                                 $   . -.a i (.jX-X&.e   <                                                   . ",
"  .                                                 X   . a >.`.-X&.e   <                                                   .   ",
"w   #                                                 - . % c.'.$.d   <                                                   #   w "
};
