/* XPM */
static char *_3b06a39f3c94edafd9d50793269ea4b6GUJZo4FOENjq6lT[] = {
/* columns rows colors chars-per-pixel */
"64 64 26 1 ",
"  c #010001",
". c #000400",
"X c #000A00",
"o c #000E00",
"O c #0F000F",
"+ c #0F0D0F",
"@ c gray6",
"# c #001700",
"$ c #0F1B0F",
"% c #0F1E0F",
"& c #002600",
"* c #013201",
"= c #003400",
"- c #003C00",
"; c #003F00",
": c #005400",
"> c #006800",
", c #00DB00",
"< c #0FDB0F",
"1 c #01F701",
"2 c #00F800",
"3 c #01FE00",
"4 c green",
"5 c #0FF70F",
"6 c #0FF80F",
"7 c #0FFE0F",
/* pixels */
"721211111111111, ##                          ## ,411111111111114",
"6:*;;;;--;-;;-;*                                =;-;;;;--;;;;*:1",
"5*                                                            *1",
"5; #oooooooooooX                                Xooooooooooo# ;1",
"5; o             .       .  .  .       . .                  o ;1",
"5; o    XXXXXXXX.XXXXXXX.XXXXX.XXXXXXXXX.XXXXXXXXXXXXXXX    o ;1",
"5- o  .                                                  .  o -1",
"5; o   &>>>>>>>>>>>>>>>>>>>>>>>>>>>>>>>>>>>>>>>>>>>>>>>>&   o ;1",
"5; o X >444444444444444444444444444444444444444444444444> X o ;1",
"5; o X >444444444444444444444444444444443334444444444244> X o ;2",
"5; o X >444444244444424442444442444444444344413324444444> X o ;1",
"5- o X >444444444444444444444444444444444444444444444444> X o -1",
"5- o X >444444444444444444444444444444444444444444444444> X o ;1",
"5- o X >442444444444444444444444444444444444444444444444> X X ;1",
"7; o X >444444444444444444444444444444444444444444444444> X o ;4",
"<= X X >444444444444444444444444444444444444444444444444> X X *,",
"O .  X >444444444444444444444444434344444444444444444444> X     ",
"%    X >444444444444444444444444434344444444444444444444> X    #",
"$    . >444444444444444444444444434344444444444444444144> X.   #",
"+   .X >444444444444444444444444434344444444444444444444> .     ",
"+    X >444444444444444444444444434344444444444443444444> X.    ",
"@ . .X >442444444444444444444444434344444444444443444444> .     ",
"@    . >444444444444444444444444434344444444444443444444> X     ",
"@   .X >444444444444444444444444434344444444444443444444> X     ",
"@    X >444444444444444444444444434344444444444444444244> ..    ",
"@    X >444444444444444444444444434344444444444444444444> X.    ",
"@    X >444444444444444444444444434344444444444444444444> X     ",
"@ .  X >444444444444444444444444434344444444444444444444> X     ",
"@ .  X >444444444444444444444444434344444444444444444444> X.    ",
"@    X >444444444444444444444444434344444444444444444444> .     ",
"@    X >444444444444444444444444434344444444444443444444> X     ",
"@   .X >442444444444444444444444434344444444444443444444> X     ",
"@    . >444444444444444444444444434344444444444443444444> X     ",
"@ . .X >444444444444444444444444434344444444444443444444> X     ",
"@    X >444444444444444444444444434344444444444443444144> X.    ",
"@    X >444444444444444444444444434344444444444443444444> .     ",
"@    X >444444444444444444444444434344444444444443444444> X.    ",
"@    X >442444444444444444444444434344444444444443444444> X     ",
"@    X >444444444444444444444444434344444444444443444444> X     ",
"@ .  X >444444444444444444444444434344444444444443444444> X     ",
"@ .  X >444444444444444444444444434344444444444444444244> X     ",
"@   .X >442444444444444444444444434344444444444444444444> X     ",
"@    . >444444444444444444444444434344444444444444444444> X.    ",
"@   .X >444444444444444444444444434344444444444444444444> .     ",
"@    X >444444444444444444444444434344444444444444444444> X.    ",
"%   .X >444444444444444444444444434344444444444444444444> X    #",
"%    . >444444444444444444444444434344444444444443444444> X    #",
"O . .X >442444444444444444444444434344444444444443444444> X     ",
"<* X.X >444444444444444444444444434344444444444443444244> X X =,",
"7; o X >444444444444444444444444434344444444444443444444> X o ;4",
"5; o X >444444444444444444444444434344444444444443444444> X o ;1",
"5; o X >444444444444444444444444434444444444444443444444> X o ;1",
"5; o X >444444444444444444444444434344444444444443444444> X o ;1",
"5- X X >442442442444444444244444444444444244444444441444> X X ;1",
"5; o X >444444444444444444444444444444444444444444444444> X o -1",
"5- o X >444444444444444444444444444444444444444444444444> X o ;1",
"5; o   &>>>>>>>>>>>>>>>>>>>>>>>>>>>>>>>>>>>>>>>>>>>>>>>>&   o ;1",
"5; o  .                                                  .  o ;2",
"5; o    XXXXXXXXXXXXXXXXX.XXX.XXXXXXXXX.XXXXXXXXXXXXXXXX    o ;1",
"5- o            .       . . . .       .                     o -1",
"5; #oooooooooooX                                Xooooooooooo# ;2",
"5*                                                            *1",
"6:*;;--;;-;--;;=                                *;;;;--;;;;;;*:2",
"721211111111114, ##                          ## ,411111111222114"
};
