/* XPM */
static char *_333652a17b640bed10143051865849drrf5Tc2dofnSuWc4[] = {
/* columns rows colors chars-per-pixel */
"64 64 10 1 ",
"  c black",
". c #070707",
"X c #0B0B0B",
"o c gray5",
"O c gray21",
"+ c gray22",
"@ c #3F3F3F",
"# c #414141",
"$ c gray34",
"% c #585858",
/* pixels */
"                     . @@ .          . @@ .                     ",
"                     . @@ .          . @@ .                     ",
"                     . @@ .          . @@ .                     ",
"                     . @@ .          . @@ .                     ",
"                     . @@ .          . @@ .                     ",
"                     . @@ .          . @@ .                     ",
"                     . @@ .          . @@ .                     ",
"                     . @@ .          . @@ .                     ",
"                     . @@ .          . @@ .                     ",
"                     . @@ .          . @@ .                     ",
"                     . @@ .          . @@ .                     ",
"                     . @@ .          . @@ .                     ",
"                     . @@ .          . @@ .                     ",
"                     . @@ .          . @@ .                     ",
"                     . @@ .          . @@ .                     ",
"                     . @@ .          . @@ .                     ",
"                     . @@ .          . @@ .                     ",
"                     . @@ .          . @@ .                     ",
"                     . @@ .          . @@ .                     ",
"                     . @@ .          . @@ .                     ",
"                     . @@ .          . @@ .                     ",
".....................o #@ o..........o @# o.....................",
"                       +O              O+                       ",
"@@@@@@@@@@@@@@@@@@@@@#+%%O#@@@@@@@@@@#+$%+#@@@@@@@@@@@@@@@@@@@@@",
"@@@@@@@@@@@@@@@@@@@@@@O$$O@@@@@@@@@@@@O$$O@@@@@@@@@@@@@@@@@@@@@@",
"                       +O              O+                       ",
".....................X #@ o..........X @# o.....................",
"                     . @@ .          . @@ .                     ",
"                     . @@ .          . @@ .                     ",
"                     . @@ .          . @@ .                     ",
"                     . @@ .          . @@ .                     ",
"                     . @@ .          . @@ .                     ",
"                     . @@ .          . @@ .                     ",
"                     . @@ .          . @@ .                     ",
"                     . @@ .          . @@ .                     ",
"                     . @@ .          . @@ .                     ",
"                     . @@ .          . @@ .                     ",
".....................o #@ o..........o @# o.....................",
"                       OO              O+                       ",
"@@@@@@@@@@@@@@@@@@@@@@O$$O@@@@@@@@@@@@O$$O@@@@@@@@@@@@@@@@@@@@@@",
"@@@@@@@@@@@@@@@@@@@@@#O%$+#@@@@@@@@@@#O$%+#@@@@@@@@@@@@@@@@@@@@@",
"                       +O              O+                       ",
".....................X #@ o..........X @# o.....................",
"                     . @@ .          . @@ .                     ",
"                     . @@ .          . @@ .                     ",
"                     . @@ .          . @@ .                     ",
"                     . @@ .          . @@ .                     ",
"                     . @@ .          . @@ .                     ",
"                     . @@ .          . @@ .                     ",
"                     . @@ .          . @@ .                     ",
"                     . @@ .          . @@ .                     ",
"                     . @@ .          . @@ .                     ",
"                     . @@ .          . @@ .                     ",
"                     . @@ .          . @@ .                     ",
"                     . @@ .          . @@ .                     ",
"                     . @@ .          . @@ .                     ",
"                     . @@ .          . @@ .                     ",
"                     . @@ .          . @@ .                     ",
"                     . @@ .          . @@ .                     ",
"                     . @@ .          . @@ .                     ",
"                     . @@ .          . @@ .                     ",
"                     . @@ .          . @@ .                     ",
"                     . @@ .          . @@ .                     ",
"                     . @@ .          . @@ .                     "
};
