/* XPM */
static char *_4bcbd38987b4b018e1079faff8905d3zYa7i6zt5JVWmWpZ[] = {
/* columns rows colors chars-per-pixel */
"64 64 9 1 ",
"  c black",
". c #040404",
"X c #222222",
"o c #313131",
"O c gray80",
"+ c #CDCDCD",
"@ c #D0D0D0",
"# c gray82",
"$ c #EFEFEF",
/* pixels */
"$+###+#####+#####+###+#####+##########+#####+#########+#######+$",
"+                                                              +",
"# oXXXXXXXXXXXXXXXXXXXXXXXXXXXXXXXXXXXXXXXXXXXXXXXXXXXXXXXXXXo #",
"# X..  .   .    .  . .   .   .     . .   .     .    .  .   . X #",
"+ X                                                          X #",
"# X                                                         .X #",
"# X                                                          X #",
"# X                                                          X +",
"# X.                                                        .X #",
"+ X                                                          X #",
"# X                                                          X #",
"# X.                                                         X +",
"# X                                                         .X #",
"+ X.                                                         X #",
"# X                                                          X #",
"# X                                                          X +",
"# X                                                         .X #",
"# X                                                          X #",
"+ X                                                          X #",
"# X                                                          X +",
"# X.                                                        .X #",
"# X                                                          X #",
"+ X                                                          X #",
"# X.                                                         X +",
"# X                                                         .X #",
"# X                                                          X #",
"# X                                                          X #",
"# X                                                          X +",
"# X                                                         .X #",
"# X                                                          X #",
"# X                                                          X #",
"# X                                                          X +",
"# X.                                                        .X #",
"+ X                                                          X #",
"# X                                                          X #",
"# X.                                                         X +",
"# X                                                         .X #",
"+ X.                                                         X #",
"# X                                                          X #",
"# X                                                          X +",
"# X                                                         .X #",
"# X                                                          X #",
"# X                                                          X #",
"+ X                                                          X +",
"# X.                                                        .X #",
"+ X                                                          X #",
"# X                                                          X #",
"# X.                                                         X +",
"# X                                                         .X #",
"# X                                                          X #",
"# X                                                          X #",
"+ X.                                                         X +",
"# X                                                         .X #",
"# X.                                                         X #",
"# X                                                          X #",
"+ X                                                          X +",
"# X.                                                        .X #",
"+ X                                                          X #",
"# X                                                          X #",
"# X.                                                         X +",
"# X.    .     .     .     .   .     .  .      . .  .    .   .X #",
"# oXXXXXXXXXXXXXXXXXXXXXXXXXXXXXXXXXXXXXXXXXXXXXXXXXXXXXXXXXXo #",
"+                                                              +",
"$+#####+###+#######+###+####+########+###+####+###+####+###+##+$"
};
